PathFileType	4	(X/Y/Z)	 s03c0101.trc
DataRate	CameraRate	NumFrames	NumMarkers	Units	OrigDataRate	OrigDataStartFrame	OrigNumFrames
200	200	4	52	mm	200	751	2000
Frame#	Time	racr			lacr			c7			jug			rlel			rdr			llel			ldr			s2			lic			ric			lasi			rasi			rpsi			lpsi			rgt			lgt			rth1			rth2			rth3			rth4			rlfc			rmfc			rsh1			rsh2			rsh3			rsh4			rlmal			rmmal			rcal			rtoe			rmt5			rmt1			lth1			lth2			lth4			lth3			llfc			lmfc			lsh1			lsh2			lsh3			lsh4			llmal			lmmal			lcal			ltoe			lmt1			lmt5			SBIKE			LBIKE			RBIKE			
		X1	Y1	Z1	X2	Y2	Z2	X3	Y3	Z3	X4	Y4	Z4	X5	Y5	Z5	X6	Y6	Z6	X7	Y7	Z7	X8	Y8	Z8	X9	Y9	Z9	X10	Y10	Z10	X11	Y11	Z11	X12	Y12	Z12	X13	Y13	Z13	X14	Y14	Z14	X15	Y15	Z15	X16	Y16	Z16	X17	Y17	Z17	X18	Y18	Z18	X19	Y19	Z19	X20	Y20	Z20	X21	Y21	Z21	X22	Y22	Z22	X23	Y23	Z23	X24	Y24	Z24	X25	Y25	Z25	X26	Y26	Z26	X27	Y27	Z27	X28	Y28	Z28	X29	Y29	Z29	X30	Y30	Z30	X31	Y31	Z31	X32	Y32	Z32	X33	Y33	Z33	X34	Y34	Z34	X35	Y35	Z35	X36	Y36	Z36	X37	Y37	Z37	X38	Y38	Z38	X39	Y39	Z39	X40	Y40	Z40	X41	Y41	Z41	X42	Y42	Z42	X43	Y43	Z43	X44	Y44	Z44	X45	Y45	Z45	X46	Y46	Z46	X47	Y47	Z47	X48	Y48	Z48	X49	Y49	Z49	X50	Y50	Z50	X51	Y51	Z51	X52	Y52	Z52	
751	3.7550	502.738321	1395.448783	-116.757342	422.340060	1418.767060	-410.248962	400.910560	1499.009913	-247.462184	408.203789	1323.439506	-253.529253	558.430167	1156.091392	23.327586	750.454120	940.133545	-31.572690	514.796023	1171.510260	-475.153976	743.287250	956.649856	-417.209757	-102.579050	1208.793733	-143.026848	21.960845	1270.646046	-351.456657	97.005539	1234.032459	5.799027	63.235024	1199.842796	-319.199071	117.502459	1171.244383	-46.020195	-65.420196	1255.415047	-97.918334	-79.121581	1265.650727	-175.616954	27.978549	1106.471452	15.414284	-2.430072	1194.934354	-370.027944	101.801064	964.506143	25.594620	168.921746	905.568001	26.397593	199.191669	825.798042	14.368163	198.724658	926.387775	18.211169	253.793704	711.358418	-22.453485	259.732174	701.025354	-140.834321	207.989176	550.935893	-1.015546	208.009679	463.039056	-19.487984	164.403298	386.515153	-23.599067	237.096292	459.032411	-44.491832	121.267394	261.357731	-51.477296	149.960841	274.818852	-130.291388	57.247130	233.309901	-88.454115	357.397787	152.927073	-108.013287	239.651718	158.342794	-31.581400	265.047282	179.249337	-145.502802	113.121338	1133.707172	-428.048927	196.668384	1126.207989	-449.514740	212.383585	1156.288222	-433.984162	266.386999	1074.811322	-472.074618	398.445301	1027.922171	-485.678968	430.606420	1011.521921	-355.954076	311.960865	877.902577	-480.480390	294.976805	798.088520	-452.504933	234.566692	733.559898	-434.130687	326.163098	785.795806	-434.172847	171.901743	630.002532	-400.489041	216.343664	640.627272	-317.374283	103.016087	607.110918	-345.585693	391.702890	497.082303	-351.927327	302.623859	524.072157	-308.212035	269.806774	513.853028	-421.671485	-209.692586	947.646584	-221.263882	-3.104651	85.075309	-430.620719	-6.873848	81.323134	-30.196906	
752	3.7600	503.310526	1395.253053	-119.442724	420.451415	1418.170406	-412.675488	400.543038	1498.715495	-249.730584	407.536093	1323.124421	-255.422868	558.136655	1155.957776	21.612604	750.429136	939.838746	-31.758191	512.148414	1170.224104	-476.750982	741.058510	956.508176	-416.692015	-102.677152	1209.384374	-141.974853	20.977225	1271.480163	-351.003293	97.674882	1234.893972	6.315292	62.434887	1200.969008	-319.259726	117.522437	1172.013859	-45.503456	-65.482568	1256.210152	-97.059922	-79.333184	1266.105551	-174.450947	28.340887	1107.227581	16.089086	-3.081458	1195.680678	-370.261846	102.768461	965.419886	26.226242	170.095351	906.861613	27.045331	200.673426	827.129919	15.234989	199.835188	927.645184	18.514385	255.248826	712.396446	-21.530041	260.089848	702.199462	-140.049694	206.495147	552.879182	-0.493436	204.506736	465.007662	-19.348235	159.247851	389.445689	-23.497524	233.397219	460.591578	-44.385485	113.486527	265.632381	-51.668934	142.564137	278.225790	-130.376672	48.871037	238.682505	-88.804020	347.240264	151.926912	-108.040368	229.527368	160.074489	-31.696379	255.553951	180.027551	-145.650617	112.669215	1133.214136	-426.254500	196.193333	1125.930578	-447.829668	211.722470	1156.318891	-432.711352	266.039546	1074.731491	-470.158618	398.720386	1028.902509	-482.543673	430.859282	1013.115089	-352.948891	315.108612	877.224038	-478.535512	299.361819	797.013453	-451.085550	239.914648	731.330662	-433.239102	330.659704	785.195158	-432.450299	179.046894	626.554960	-400.338742	227.739811	638.734262	-313.676656	110.028283	601.050608	-345.335271	401.703543	499.071382	-351.860724	311.782769	523.721391	-308.213073	279.360345	512.824969	-421.543860	-209.464759	947.478039	-221.629363	-3.136808	84.993421	-430.664288	-6.883356	81.314409	-30.201179	
753	3.7650	503.821732	1394.890383	-122.077812	418.661287	1417.608535	-414.967728	400.116109	1498.416396	-251.911584	406.817940	1322.811508	-257.398048	557.803096	1155.685808	19.807773	750.345736	939.455285	-32.037910	509.504243	1168.849011	-478.034514	739.598110	956.422782	-416.655993	-102.920881	1210.024257	-141.224839	20.016836	1272.351486	-350.814567	98.093797	1235.600259	6.700839	61.648075	1201.898480	-319.423828	117.320408	1172.688933	-45.274964	-65.789869	1257.019326	-96.426995	-79.747303	1266.909021	-173.876074	28.741061	1108.005928	16.563718	-3.738760	1196.025707	-370.835183	103.900879	966.629649	26.747093	171.617948	908.267231	27.514953	202.595731	828.737853	15.984753	201.193392	929.216924	18.656164	257.266345	713.850620	-20.625366	261.763212	703.907337	-139.419204	205.375741	555.299692	-0.062056	201.398138	467.697308	-19.216440	154.532761	393.095528	-23.388884	230.082051	462.602751	-44.371002	105.899793	270.571979	-51.975426	135.298087	282.359430	-130.444519	40.776491	244.985378	-89.258848	337.158844	151.471655	-107.915342	219.556246	162.518307	-31.972997	246.272192	181.526853	-145.742310	112.281713	1132.400001	-424.809184	195.864152	1125.173320	-446.330355	211.229778	1155.691706	-431.338662	265.790706	1074.050687	-468.299220	398.988967	1029.155870	-480.041146	430.674582	1013.356080	-350.204566	318.079195	875.647377	-476.633501	303.479168	794.921306	-449.569136	244.932666	728.316625	-432.332288	334.861718	783.656328	-430.964730	185.356848	621.672914	-400.065942	233.448289	634.483544	-313.133469	116.925901	594.175209	-345.789445	411.218420	500.652677	-352.022234	320.920388	522.571025	-307.722090	288.811438	510.742415	-421.337561	-209.525928	947.471258	-221.563701	-3.165540	85.008208	-430.637711	-6.922295	81.333694	-30.180871	
754	3.7700	504.290635	1394.442856	-124.684883	417.038522	1417.076607	-417.256201	399.725919	1498.049894	-253.966316	406.211072	1322.438876	-259.385662	557.375117	1155.270271	17.983485	750.279352	939.103786	-32.237110	506.772505	1167.530527	-479.124920	738.791047	957.171010	-417.448976	-104.846909	1210.042911	-141.111033	19.019345	1273.305183	-350.746262	98.224156	1236.208353	6.997475	60.884719	1202.618985	-319.681675	117.119335	1173.375914	-45.158828	-66.314184	1257.822594	-96.057006	-80.182015	1267.545955	-173.540510	29.094173	1108.891361	16.849197	-4.360152	1195.744547	-371.514936	105.156628	967.829938	27.115754	173.306632	910.110722	27.808606	204.805502	830.722898	16.614940	202.603125	931.139022	18.620272	259.774943	715.830948	-19.723999	264.375735	705.885887	-138.657615	204.585280	558.196128	0.383305	198.662165	470.782025	-19.146076	150.136317	397.361260	-23.388008	227.195638	465.262068	-44.292229	98.673519	276.285275	-52.338802	128.475606	287.343889	-130.646470	33.063430	252.024870	-89.758203	327.313385	151.681920	-107.720771	209.916049	165.714779	-32.216824	238.292292	184.456431	-144.603646	112.064856	1131.505993	-423.981163	195.713089	1124.024160	-444.970040	211.319388	1154.879450	-430.901480	265.797256	1072.439264	-465.780612	399.414459	1028.059751	-477.201763	430.070930	1012.973277	-347.270457	320.812232	872.971214	-474.750622	307.262014	791.883864	-448.246218	249.554625	724.460577	-431.547787	338.777132	781.019857	-429.551839	191.472498	615.788648	-400.038991	239.286729	629.862027	-312.842516	123.457945	585.972740	-345.724579	420.702444	501.914517	-351.883248	329.237122	521.130064	-308.024992	297.865991	508.097055	-421.426633	-209.673687	947.512057	-221.352926	-3.195403	85.076254	-430.602211	-6.968770	81.365340	-30.151916	
